<?xml version="1.0" encoding="UTF-8"?>
<svg version="1.1" xmlns="http://www.w3.org/2000/svg" width="64" height="64">
<path d="M0 0 C1.14662109 0.13148437 1.14662109 0.13148437 2.31640625 0.265625 C4.4375 0.75 4.4375 0.75 7.4375 2.75 C9.12172368 1.99044814 10.80476337 1.22792778 12.4765625 0.44140625 C15.94417435 -0.78123777 18.9892247 -0.39709361 22.4375 0.75 C25.7819902 2.66957495 28.00592726 4.92608841 29.8125 8.375 C30.4375 10.75 30.4375 10.75 30.4375 13.75 C31.4275 14.08 32.4175 14.41 33.4375 14.75 C35.96838777 17.91360972 35.48870648 20.94564561 35.1171875 24.75 C34.1185289 27.68858163 32.90894015 28.84761904 30.4375 30.75 C27.52670028 31.1478143 25.00201259 31.31159 22.09375 31.28125 C21.28764282 31.2850769 20.48153564 31.28890381 19.65100098 31.29284668 C17.94977568 31.2955639 16.24850847 31.2882159 14.54736328 31.27148438 C11.94599104 31.2500699 9.34738028 31.27129019 6.74609375 31.296875 C5.09113975 31.29423169 3.43618746 31.28910663 1.78125 31.28125 C1.00511353 31.28934692 0.22897705 31.29744385 -0.57067871 31.30578613 C-4.13370164 31.24403838 -6.17406308 31.04164073 -9.06176758 28.87353516 C-10.92880606 26.23167723 -10.95516287 24.82172384 -10.75 21.625 C-10.4509288 18.04778204 -10.4509288 18.04778204 -11.5625 14.75 C-11.90958476 9.45695745 -12.07601894 6.01641586 -8.5625 1.75 C-5.52310139 -0.16345437 -3.53812646 -0.4549875 0 0 Z " fill="#FDFDFD" transform="translate(23.5625,16.25)"/>
<path d="M0 0 C1.14662109 0.13148437 1.14662109 0.13148437 2.31640625 0.265625 C4.4375 0.75 4.4375 0.75 7.4375 2.75 C9.12172368 1.99044814 10.80476337 1.22792778 12.4765625 0.44140625 C15.94417435 -0.78123777 18.9892247 -0.39709361 22.4375 0.75 C25.7819902 2.66957495 28.00592726 4.92608841 29.8125 8.375 C30.4375 10.75 30.4375 10.75 30.4375 13.75 C31.4275 14.08 32.4175 14.41 33.4375 14.75 C35.96838777 17.91360972 35.48870648 20.94564561 35.1171875 24.75 C34.1185289 27.68858163 32.90894015 28.84761904 30.4375 30.75 C27.52670028 31.1478143 25.00201259 31.31159 22.09375 31.28125 C21.28764282 31.2850769 20.48153564 31.28890381 19.65100098 31.29284668 C17.94977568 31.2955639 16.24850847 31.2882159 14.54736328 31.27148438 C11.94599104 31.2500699 9.34738028 31.27129019 6.74609375 31.296875 C5.09113975 31.29423169 3.43618746 31.28910663 1.78125 31.28125 C1.00511353 31.28934692 0.22897705 31.29744385 -0.57067871 31.30578613 C-4.13370164 31.24403838 -6.17406308 31.04164073 -9.06176758 28.87353516 C-10.92880606 26.23167723 -10.95516287 24.82172384 -10.75 21.625 C-10.4509288 18.04778204 -10.4509288 18.04778204 -11.5625 14.75 C-11.90958476 9.45695745 -12.07601894 6.01641586 -8.5625 1.75 C-5.52310139 -0.16345437 -3.53812646 -0.4549875 0 0 Z M7.4375 8.75 C7.4375 9.41 7.4375 10.07 7.4375 10.75 C6.344375 10.8325 5.25125 10.915 4.125 11 C0.44783112 11.40341817 0.44783112 11.40341817 -1.5 13.625 C-2.7861068 15.80124322 -2.7861068 15.80124322 -2.5625 18.75 C-3.8825 19.08 -5.2025 19.41 -6.5625 19.75 C-7.33206136 22.09533951 -7.33206136 22.09533951 -7.5625 24.75 C-6.59991257 26.55152533 -6.59991257 26.55152533 -4.5625 27.75 C-2.01062856 28.0481684 0.29252507 28.17066726 2.84375 28.1484375 C3.92541443 28.15274277 3.92541443 28.15274277 5.02893066 28.15713501 C6.55200995 28.15917452 8.0751155 28.15365247 9.59814453 28.14111328 C11.92930678 28.12505643 14.25873542 28.1409641 16.58984375 28.16015625 C18.07031633 28.1581738 19.55078782 28.15433007 21.03125 28.1484375 C21.7281897 28.15451019 22.42512939 28.16058289 23.14318848 28.1668396 C26.01260794 28.12514376 27.97713821 28.06745492 30.37695312 26.41259766 C32.04645857 23.79534809 31.81488328 21.76906622 31.4375 18.75 C30.18632038 16.82994865 30.18632038 16.82994865 28.4375 15.75 C27.7775 15.75 27.1175 15.75 26.4375 15.75 C26.52 14.863125 26.6025 13.97625 26.6875 13.0625 C26.38280814 9.02533282 25.21709995 7.61135289 22.4375 4.75 C16.17873495 1.62061747 11.42943665 3.51058315 7.4375 8.75 Z " fill="#D2D3D2" transform="translate(23.5625,16.25)"/>
<path d="M0 0 C1.16402344 0.13148437 1.16402344 0.13148437 2.3515625 0.265625 C4.375 0.75 4.375 0.75 6.375 2.75 C6.375 4.07 6.375 5.39 6.375 6.75 C5.84390625 6.96914063 5.3128125 7.18828125 4.765625 7.4140625 C-0.4057369 9.73551328 -2.57815139 11.85327902 -5.625 16.75 C-7.875 17.625 -7.875 17.625 -9.625 17.75 C-12.09861688 14.03957469 -12.17107278 11.05137325 -11.625 6.75 C-10.36436585 3.85054147 -9.47825256 2.28831814 -6.8046875 0.6015625 C-4.25889774 -0.3930292 -2.6961473 -0.34265417 0 0 Z " fill="#FAB604" transform="translate(23.625,16.25)"/>
<path d="M0 0 C0.99 0.66 1.98 1.32 3 2 C3 2.66 3 3.32 3 4 C2.36191406 4.33773438 1.72382813 4.67546875 1.06640625 5.0234375 C0.24011719 5.46945313 -0.58617187 5.91546875 -1.4375 6.375 C-2.67306641 7.03628906 -2.67306641 7.03628906 -3.93359375 7.7109375 C-6.13466578 8.83418559 -6.13466578 8.83418559 -7 11 C-7.66 11 -8.32 11 -9 11 C-9.36180905 3.64321608 -9.36180905 3.64321608 -7.875 1 C-5.13335219 -0.46221217 -3.05603838 -0.31833733 0 0 Z " fill="#FDEE06" transform="translate(25,20)"/>
<path d="M0 0 C0.33 0 0.66 0 1 0 C1 2.31 1 4.62 1 7 C-0.093125 7.20625 -1.18625 7.4125 -2.3125 7.625 C-6.90200857 9.33634218 -6.96469566 10.75240834 -9 15 C-12.0625 16.4375 -12.0625 16.4375 -15 17 C-15.66 16.67 -16.32 16.34 -17 16 C-15 14 -13 12 -11 10 C-9.8553125 8.7315625 -9.8553125 8.7315625 -8.6875 7.4375 C-5.83141005 4.84709283 -3.69746643 3.94586351 0 3 C0 2.01 0 1.02 0 0 Z " fill="#D8D3AC" transform="translate(30,20)"/>
<path d="M0 0 C0.33 0.99 0.66 1.98 1 3 C1.66 3 2.32 3 3 3 C3.33 4.65 3.66 6.3 4 8 C4.66 8 5.32 8 6 8 C6.33 7.01 6.66 6.02 7 5 C7.33 5.66 7.66 6.32 8 7 C6.68 8.32 5.36 9.64 4 11 C3.01 10.67 2.02 10.34 1 10 C-0.60725635 6.78548731 -0.05748185 3.56387464 0 0 Z " fill="#F4B10F" transform="translate(12,23)"/>
<path d="M0 0 C0.66 0.33 1.32 0.66 2 1 C1.375 3.375 1.375 3.375 0 6 C-3 7.375 -3 7.375 -6 8 C-6.66 7.67 -7.32 7.34 -8 7 C-5.53058944 4.40062046 -2.81939117 2.20979308 0 0 Z " fill="#D8D4C2" transform="translate(21,29)"/>
<path d="M0 0 C0.99 0.66 1.98 1.32 3 2 C3 2.66 3 3.32 3 4 C1.02 4.66 -0.96 5.32 -3 6 C-3.33 4.68 -3.66 3.36 -4 2 C-2.68 1.34 -1.36 0.68 0 0 Z " fill="#F8AF0F" transform="translate(10,31)"/>
<path d="M0 0 C4.875 1.75 4.875 1.75 6 4 C5.67 4.66 5.34 5.32 5 6 C2.83125748 5.49396008 1.00032373 5.00016187 -1 4 C-0.67 2.68 -0.34 1.36 0 0 Z " fill="#F6B111" transform="translate(7,16)"/>
<path d="M0 0 C1.32 0.33 2.64 0.66 4 1 C3.34 2.98 2.68 4.96 2 7 C0.68 6.67 -0.64 6.34 -2 6 C-1.34 4.02 -0.68 2.04 0 0 Z " fill="#FAAE0C" transform="translate(29,10)"/>
<path d="M0 0 C1.37562854 1.28965176 2.70766393 2.62689293 4 4 C4 4.66 4 5.32 4 6 C2.68 6.33 1.36 6.66 0 7 C-2 4 -2 4 -2 1 C-1.34 0.67 -0.68 0.34 0 0 Z " fill="#F8B012" transform="translate(14,10)"/>
<path d="M0 0 C1.98 0 3.96 0 6 0 C6 1.32 6 2.64 6 4 C4.02 4 2.04 4 0 4 C0 2.68 0 1.36 0 0 Z " fill="#F6B014" transform="translate(4,25)"/>
<path d="M0 0 C1.32 0 2.64 0 4 0 C4 1.98 4 3.96 4 6 C2.68 6 1.36 6 0 6 C0 4.02 0 2.04 0 0 Z " fill="#F4B016" transform="translate(20,9)"/>
<path d="M0 0 C0.33 0.66 0.66 1.32 1 2 C-0.32 3.32 -1.64 4.64 -3 6 C-3.99 5.67 -4.98 5.34 -6 5 C-5.67 4.01 -5.34 3.02 -5 2 C-3.02 2.495 -3.02 2.495 -1 3 C-0.67 2.01 -0.34 1.02 0 0 Z " fill="#F0C62F" transform="translate(19,28)"/>
<path d="M0 0 C0.99 0.33 1.98 0.66 3 1 C3 1.66 3 2.32 3 3 C-0.96 4.98 -0.96 4.98 -5 7 C-3.88820837 3.66462511 -2.52588702 2.36292656 0 0 Z " fill="#F3E92C" transform="translate(25,21)"/>
</svg>
